<svg width="96" height="96" viewBox="0 0 96 96" fill="none" xmlns="http://www.w3.org/2000/svg">
  <circle cx="48" cy="48" r="45" fill="#FFFFFF" stroke="#0A1C3C" stroke-width="6"/>
  <path d="M48 6C59 14 66 30 66 48C66 66 59 82 48 90" stroke="#801007" stroke-width="5" stroke-linecap="round"/>
  <path d="M48 6C37 14 30 30 30 48C30 66 37 82 48 90" stroke="#801007" stroke-width="5" stroke-linecap="round"/>
  <path d="M6 48H90" stroke="#0A1C3C" stroke-width="4.5" stroke-linecap="round"/>
  <path d="M16 28C27 33 38 36 48 36C58 36 69 33 80 28" stroke="#0A1C3C" stroke-width="4.5" stroke-linecap="round"/>
  <path d="M16 68C27 63 38 60 48 60C58 60 69 63 80 68" stroke="#0A1C3C" stroke-width="4.5" stroke-linecap="round"/>
</svg>
